HIERARCHY
ROOT ui
{
	 OFFSET 0 0 0
	 CHANNELS 3 XPosition YPosition Z Position
	 EndSite
	 {
	 OFFSET 0 -1 0
	 }
}
ROOT li
{
	 OFFSET 0 0 0
	 CHANNELS 3 XPosition YPosition Z Position
	 EndSite
	 {
	 OFFSET 0 -1 0
	 }
}
ROOT ul
{
	 OFFSET 0 0 0
	 CHANNELS 3 XPosition YPosition Z Position
	 EndSite
	 {
	 OFFSET 0 -1 0
	 }
}
ROOT ll
{
	 OFFSET 0 0 0
	 CHANNELS 3 XPosition YPosition Z Position
	 EndSite
	 {
	 OFFSET 0 -1 0
	 }
}
ROOT tt
{
	 OFFSET 0 0 0
	 CHANNELS 3 XPosition YPosition Z Position
	 EndSite
	 {
	 OFFSET 0 -1 0
	 }
}
ROOT tb
{
	 OFFSET 0 0 0
	 CHANNELS 3 XPosition YPosition Z Position
	 EndSite
	 {
	 OFFSET 0 -1 0
	 }
}
ROOT td
{
	 OFFSET 0 0 0
	 CHANNELS 3 XPosition YPosition Z Position
	 EndSite
	 {
	 OFFSET 0 -1 0
	 }
}
ROOT v
{
	 OFFSET 0 0 0
	 CHANNELS 3 XPosition YPosition Z Position
	 EndSite
	 {
	 OFFSET 0 -1 0
	 }
}
ROOT bn
{
	 OFFSET 0 0 0
	 CHANNELS 3 XPosition YPosition Z Position
	 EndSite
	 {
	 OFFSET 0 -1 0
	 }
}
MOTION
Frames: 16
Frame Time: 0.002
0.0014247579574584962	0.0025620470046997072	0		0.45450228881835936	-2.361945556640625	0		-1.1546285400390626	0.20878941345214844	0		-0.64744482421875	-2.55726220703125	0		1.9184713134765625	-0.2080497589111328	0		3.61779736328125	0.12647673797607423	0		4.81412939453125	0.1548695831298828	0		5.95064794921875	0.44377862548828123	0		-0.25148519897460936	5.88729296875	0		
-0.0057375807762145995	-0.004380249977111816	0		0.47923806762695315	-2.36722314453125	0		-1.1547125244140626	0.20883711242675781	0		-0.6456495971679688	-2.555259765625	0		1.908249755859375	-0.22005975341796874	0		3.631708740234375	0.1261459197998047	0		4.81897412109375	0.14756622314453124	0		5.9561806640625	0.41714962768554686	0		-0.23617465209960936	5.8981484375	0		
-0.001799571990966797	-0.0014166409969329835	0		0.46299072265625	-2.37108740234375	0		-1.1488424072265624	0.20383872985839843	0		-0.63494677734375	-2.56333251953125	0		1.913078857421875	-0.22720079040527344	0		3.617703125	0.13410458374023437	0		4.818890625	0.14732888793945312	0		5.95611328125	0.41663641357421877	0		-0.22086474609375	5.90901513671875	0		
0.0011512069702148437	0.002569936037063599	0		0.4648173522949219	-2.36811328125	0		-1.1489210205078124	0.203910400390625	0		-0.6941363525390625	-2.560704345703125	0		1.9120977783203126	-0.21526759338378906	0		3.623344970703125	0.10588851928710938	0		4.81880908203125	0.14711260986328126	0		5.95843408203125	0.4766587829589844	0		-0.186610595703125	5.91470654296875	0		
0.005094382762908935	0.00556009578704834	0		0.45570135498046876	-2.36001611328125	0		-1.148998046875	0.20399333190917968	0		-0.631314208984375	-2.55826611328125	0		1.9348814697265626	-0.22755287170410157	0		3.6514697265625	0.1264732131958008	0		4.81553173828125	0.12695104217529296	0		5.96019384765625	0.39833334350585936	0		-0.22048202514648438	5.90908203125	0		
-0.006089445114135742	-0.004286812782287598	0		0.4784425964355469	-2.367220703125	0		-1.1590638427734374	0.20518621826171876	0		-0.6595890502929688	-2.56591650390625	0		1.9288463134765625	-0.22153436279296876	0		3.62732177734375	0.11959654998779297	0		4.818650390625	0.14675389099121094	0		5.9559228515625	0.41535748291015623	0		-0.22129978942871092	5.91014501953125	0		
-0.006174345016479493	-0.004230138778686524	0		0.47623162841796873	-2.37016357421875	0		-1.164179931640625	0.2013399658203125	0		-0.6258298950195312	-2.57117236328125	0		1.90979345703125	-0.2173670196533203	0		3.628201904296875	0.1154954605102539	0		4.81537255859375	0.12664501953125	0		5.959498046875	0.4322444763183594	0		-0.2201538543701172	5.90920068359375	0		
-0.0062588129043579105	-0.004160703182220459	0		0.46002886962890627	-2.372951904296875	0		-1.153357421875	0.19134326171875	0		-0.6870078735351562	-2.57046826171875	0		1.908560791015625	-0.23135896301269532	0		3.632091796875	0.11238819122314453	0		4.8124130859375	0.1385624542236328	0		5.95943603515625	0.43197259521484377	0		-0.21803591918945311	5.90725830078125	0		
0.013667200088500977	-0.003278947114944458	0		0.4639146423339844	-2.367925537109375	0		-1.148393798828125	0.19541502380371092	0		-0.5982839965820312	-2.58125634765625	0		1.9125098876953126	-0.22738215637207032	0		3.641293701171875	0.14025439453125	0		4.82233447265625	0.13837954711914063	0		5.95937548828125	0.43175875854492185	0		-0.2189060821533203	5.9083583984375	0		
0.004678005218505859	0.005908638000488281	0		0.4818211669921875	-2.36202392578125	0		-1.16440673828125	0.2017090606689453	0		-0.6394515991210937	-2.581726806640625	0		1.909523681640625	-0.21731349182128906	0		3.609037841796875	0.1225638427734375	0		4.81020849609375	0.13345033264160155	0		5.9556796875	0.41439614868164065	0		-0.2197947235107422	5.90947265625	0		
5.703290104866028E-4	0.0030635759830474852	0		0.4755992736816406	-2.369861328125	0		-1.1335615234375	0.19354180908203125	0		-0.6046511840820312	-2.58694873046875	0		1.9023494873046876	-0.22617918395996095	0		3.63302294921875	0.128338134765625	0		4.82013427734375	0.13333416748046875	0		5.94342626953125	0.39731253051757814	0		-0.21971331787109374	5.90959326171875	0		
-0.002546217918395996	-7.733079791069031E-4	0		0.45741909790039065	-2.374556884765625	0		-1.1796715087890626	0.1901666717529297	0		-0.6088370361328125	-2.59176171875	0		1.9612042236328124	-0.23268783569335938	0		3.632949462890625	0.12838755798339843	0		4.82498974609375	0.12630611419677734	0		5.9519296875	0.3970942993164063	0		-0.21965437316894532	5.90973046875	0		
-0.006652690887451172	-0.0035811309814453127	0		0.4842669982910156	-2.37768798828125	0		-1.138746337890625	0.18992361450195314	0		-0.5990430908203125	-2.5997001953125	0		1.9231763916015625	-0.22718728637695312	0		3.642027587890625	0.14337936401367188	0		4.82811865234375	0.1463364715576172	0		5.95130615234375	0.43177923583984373	0		-0.21962095642089843	5.90988623046875	0		
0.004371224880218506	0.006477502822875977	0		0.4612290954589844	-2.37029052734375	0		-1.13882080078125	0.19011038208007813	0		-0.5971361694335937	-2.597541259765625	0		1.9610433349609375	-0.23242926025390626	0		3.627871826171875	0.13564231872558594	0		4.83804296875	0.14633848571777344	0		5.95545751953125	0.414525634765625	0		-0.21961581420898438	5.91006005859375	0		
2.6241698861122133E-4	0.003709336042404175	0		0.4949952087402344	-2.383448974609375	0		-1.15301904296875	0.1784547119140625	0		-0.59925830078125	-2.599324462890625	0		1.9519732666015626	-0.23116433715820311	0		3.678863037109375	0.14228138732910156	0		4.8379658203125	0.14648603820800782	0		5.95540087890625	0.4147627258300781	0		-0.18558197021484374	5.91590673828125	0		
1.8204300105571748E-4	0.0039203610420227054	0		0.454968994140625	-2.376832763671875	0		-1.1530987548828124	0.1786700897216797	0		-0.6033889770507812	-2.6030703125	0		1.9388621826171875	-0.2338281707763672	0		3.632724609375	0.13694712829589845	0		4.8258359375	0.1418012237548828	0		5.95170458984375	0.39787753295898437	0		-0.21969935607910157	5.91046484375	0		
